# xmcd
#
# Track frame offsets:
#       150
#       11901
#       23647
#       33160
#       42857
#       55248
#       67731
#       80656
#       94819
#       108399
#       117305
#
# Disc length: 1793 seconds
#
# Revision: 1
# Processed by: cddbd v1.5.2PL0 Copyright (c) Steve Scherf et al.
# Submitted via: FreeDbEdit v0.1
#
DISCID=8406ff0b
DTITLE=The Stanley Brothers - All Time Greatest Hits
DYEAR=1900
DGENRE=Bluegrass
TTITLE0=I'm a Man of Constant Sorrow
TTITLE1=Don't Cheat in Our Home Town
TTITLE2=How Mountain Girls Can Love
TTITLE3=Stone Walls and Steel Bars
TTITLE4=Train45
TTITLE5=Little Maggie
TTITLE6=Oh Death
TTITLE7=Rank Strangers
TTITLE8=White Dove
TTITLE9=Little Birdie
TTITLE10=Beautiful Star of Bethlehem
EXTD=
EXTT0=
EXTT1=
EXTT2=
EXTT3=
EXTT4=
EXTT5=
EXTT6=
EXTT7=
EXTT8=
EXTT9=
EXTT10=
PLAYORDER=
